<svg width="18" height="8" viewBox="0 0 18 8" fill="none" xmlns="http://www.w3.org/2000/svg">
<path d="M16.5685 7.1667L1.43151 7.1667C1.18446 7.1667 0.947523 7.06785 0.772832 6.89189C0.598141 6.71593 0.5 6.47728 0.5 6.22843C0.5 5.97959 0.598141 5.74093 0.772832 5.56497C0.947523 5.38901 1.18446 5.29016 1.43151 5.29016L16.5685 5.29016C16.8155 5.29016 17.0525 5.38901 17.2272 5.56497C17.4019 5.74093 17.5 5.97959 17.5 6.22843C17.5 6.47728 17.4019 6.71593 17.2272 6.89189C17.0525 7.06785 16.8155 7.1667 16.5685 7.1667Z" fill="#FFA800"/>
<path d="M16.5685 2.70992L1.43151 2.70992C1.18446 2.70992 0.947523 2.61106 0.772832 2.4351C0.598141 2.25914 0.5 2.02049 0.5 1.77165C0.5 1.5228 0.598141 1.28415 0.772832 1.10819C0.947523 0.932227 1.18446 0.833374 1.43151 0.833374L16.5685 0.833374C16.8155 0.833374 17.0525 0.932227 17.2272 1.10819C17.4019 1.28415 17.5 1.5228 17.5 1.77165C17.5 2.02049 17.4019 2.25914 17.2272 2.4351C17.0525 2.61106 16.8155 2.70992 16.5685 2.70992Z" fill="#FFA800"/>
</svg>
